<svg xmlns="http://www.w3.org/2000/svg" xmlns:xlink="http://www.w3.org/1999/xlink" viewBox="0 0 595.28 595.28"><defs><style>.a{fill:none;}.b{isolation:isolate;}.c{fill:url(#a);}.d{fill:url(#b);}.e{fill:url(#c);}.aa,.ab,.af,.au,.f,.g,.j,.l,.o,.s,.t,.u,.v,.w,.x{mix-blend-mode:multiply;}.f{fill:url(#d);}.g{fill:url(#e);}.h{fill:url(#f);}.i{fill:url(#g);}.j{fill:url(#h);}.k{clip-path:url(#i);}.l{fill:url(#j);}.m{fill:url(#k);}.n{fill:url(#l);}.o{fill:url(#m);}.p{fill:url(#n);}.q{fill:url(#o);}.r{fill:url(#p);}.s{fill:url(#q);}.t{fill:url(#r);}.u{fill:url(#s);}.v{fill:url(#t);}.w{fill:url(#u);}.x{fill:url(#v);}.y{fill:url(#w);}.z{fill:url(#x);}.aa{fill:url(#y);}.ab{fill:url(#z);}.ac{fill:url(#aa);}.ad{fill:url(#ab);}.ae{fill:url(#ac);}.af{fill:url(#ad);}.ag{fill:url(#ae);}.ah{fill:url(#af);}.ai{fill:url(#ag);}.aj{fill:url(#ah);}.ak{fill:url(#ai);}.al{fill:url(#aj);}.am{fill:url(#ak);}.an{fill:url(#al);}.ao{fill:url(#am);}.ap{fill:url(#an);}.aq{fill:url(#ao);}.ar{fill:url(#ap);}.as{fill:#fff;}.at{fill:#182871;}.au{fill:url(#aq);}</style><radialGradient id="a" cx="297.63" cy="297.62" r="283.46" gradientUnits="userSpaceOnUse"><stop offset="0.96" stop-color="#fff"/><stop offset="0.99" stop-color="#e3e3e3"/><stop offset="1" stop-color="#d9d9d9"/></radialGradient><radialGradient id="b" cx="297.63" cy="297.62" r="284.98" xlink:href="#a"/><radialGradient id="c" cx="283.3" cy="182.28" fx="255.1330734880177" r="394.46" gradientUnits="userSpaceOnUse"><stop offset="0" stop-color="#f2f2f2"/><stop offset="0.47" stop-color="#f0f0f0"/><stop offset="0.64" stop-color="#e9e9e9"/><stop offset="0.7" stop-color="#e5e5e5"/><stop offset="0.86" stop-color="#d9d9d9"/></radialGradient><radialGradient id="d" cx="299.98" cy="100.28" r="482.14" gradientUnits="userSpaceOnUse"><stop offset="0" stop-color="#fff"/><stop offset="0.55" stop-color="#fdfdfd"/><stop offset="0.75" stop-color="#f6f6f6"/><stop offset="0.89" stop-color="#ebebeb"/><stop offset="0.94" stop-color="#e5e5e5"/></radialGradient><radialGradient id="e" cx="310.64" cy="104.28" fx="302.2404767021583" r="460.37" gradientUnits="userSpaceOnUse"><stop offset="0" stop-color="#f7f7f7"/><stop offset="0.59" stop-color="#f5f5f5"/><stop offset="0.81" stop-color="#eee"/><stop offset="0.94" stop-color="#e5e5e5"/></radialGradient><radialGradient id="f" cx="321.63" cy="353.63" fx="169.9258903188674" fy="290.4073858141137" r="284.68" gradientUnits="userSpaceOnUse"><stop offset="0.02" stop-color="#f2f2f2"/><stop offset="0.26" stop-color="#ececec"/><stop offset="0.58" stop-color="#dbdbdb"/><stop offset="0.61" stop-color="#d9d9d9"/><stop offset="0.65" stop-color="#d3d3d3"/><stop offset="0.7" stop-color="#c3c3c3"/><stop offset="0.76" stop-color="#a8a8a8"/><stop offset="0.82" stop-color="#838383"/><stop offset="0.89" stop-color="#535353"/><stop offset="0.96" stop-color="#1a1a1a"/><stop offset="0.99"/></radialGradient><linearGradient id="g" x1="467.26" y1="67.65" x2="490.79" y2="67.65" gradientUnits="userSpaceOnUse"><stop offset="0.02" stop-color="#e5e5e5"/><stop offset="0.2" stop-color="#e0e0e0"/><stop offset="0.4" stop-color="#d3d3d3"/><stop offset="0.61" stop-color="#bdbdbd"/><stop offset="0.83" stop-color="#9e9e9e"/><stop offset="1" stop-color="gray"/></linearGradient><radialGradient id="h" cx="297.63" cy="297.62" r="215.36" gradientUnits="userSpaceOnUse"><stop offset="0.92" stop-color="#b2b2b2"/><stop offset="0.94" stop-color="#c3c3c3"/><stop offset="0.96" stop-color="#ddd"/><stop offset="0.98" stop-color="#ededed"/><stop offset="1" stop-color="#f2f2f2"/></radialGradient><clipPath id="i"><path class="a" d="M493.38,345.46a201.54,201.54,0,0,1-391.5,0L85.44,340l-1.21-1,.24,1.2a217.38,217.38,0,0,0,426.32,0L511,339l-1.24,1Z"/></clipPath><radialGradient id="j" cx="296.62" cy="275.5" fy="36.52879886592112" r="254.14" gradientTransform="translate(0.91 21.24) rotate(0.21) scale(1 0.92)" gradientUnits="userSpaceOnUse"><stop offset="0.83" stop-color="#fff"/><stop offset="0.83" stop-color="#e2e2e2"/><stop offset="0.83" stop-color="#bcbcbc"/><stop offset="0.84" stop-color="#9a9a9a"/><stop offset="0.84" stop-color="#7e7e7e"/><stop offset="0.85" stop-color="#676767"/><stop offset="0.85" stop-color="#565656"/><stop offset="0.86" stop-color="#494949"/><stop offset="0.86" stop-color="#424242"/><stop offset="0.88" stop-color="#404040"/><stop offset="0.89" stop-color="#484848" stop-opacity="0.96"/><stop offset="0.9" stop-color="#636363" stop-opacity="0.82"/><stop offset="0.91" stop-color="#909090" stop-opacity="0.58"/><stop offset="0.92" stop-color="#cfcfcf" stop-opacity="0.25"/><stop offset="0.92" stop-color="#fff" stop-opacity="0"/><stop offset="0.93" stop-color="#fff" stop-opacity="0.15"/><stop offset="0.96" stop-color="#fff" stop-opacity="0.6"/><stop offset="0.99" stop-color="#fff" stop-opacity="0.89"/><stop offset="1" stop-color="#fff"/></radialGradient><linearGradient id="k" x1="355.32" y1="348.56" x2="244.7" y2="171.65" gradientUnits="userSpaceOnUse"><stop offset="0" stop-color="#d9d9d9"/><stop offset="0.3" stop-color="#d6d6d6"/><stop offset="0.53" stop-color="#cdcdcd"/><stop offset="0.73" stop-color="#bdbdbd"/><stop offset="0.92" stop-color="#a6a6a6"/><stop offset="1" stop-color="#999"/></linearGradient><linearGradient id="l" x1="354.93" y1="432.44" x2="248.81" y2="259.31" gradientUnits="userSpaceOnUse"><stop offset="0" stop-color="#bfbfbf"/><stop offset="0.33" stop-color="#bcbcbc"/><stop offset="0.58" stop-color="#b3b3b3"/><stop offset="0.8" stop-color="#a3a3a3"/><stop offset="1" stop-color="#8c8c8c"/><stop offset="1" stop-color="#8c8c8c"/></linearGradient><linearGradient id="m" x1="482.7" y1="70.47" x2="474.6" y2="63.7" gradientUnits="userSpaceOnUse"><stop offset="0.02" stop-color="#fff"/><stop offset="0.18" stop-color="#fafafa"/><stop offset="0.36" stop-color="#ebebeb"/><stop offset="0.57" stop-color="#d2d2d2"/><stop offset="0.78" stop-color="#afafaf"/><stop offset="1" stop-color="#858585"/></linearGradient><linearGradient id="n" x1="527.83" y1="128.56" x2="527.85" y2="103.49" gradientUnits="userSpaceOnUse"><stop offset="0.03" stop-color="#d9d9d9"/><stop offset="0.2" stop-color="#d4d4d4"/><stop offset="0.41" stop-color="#c5c5c5"/><stop offset="0.63" stop-color="#acacac"/><stop offset="0.87" stop-color="#898989"/><stop offset="1" stop-color="#737373"/></linearGradient><linearGradient id="o" x1="573.95" y1="157.84" x2="574.13" y2="16.28" gradientUnits="userSpaceOnUse"><stop offset="0" stop-color="#d9d9d9"/><stop offset="0.39" stop-color="#d4d4d4"/><stop offset="0.86" stop-color="#c5c5c5"/><stop offset="1" stop-color="#bfbfbf"/></linearGradient><linearGradient id="p" x1="441.77" y1="21.33" x2="577.29" y2="21.33" gradientUnits="userSpaceOnUse"><stop offset="0" stop-color="#f0f0f0"/><stop offset="1" stop-color="#c9c9c9"/></linearGradient><linearGradient id="q" x1="297.63" y1="256.28" x2="297.63" y2="250.72" gradientUnits="userSpaceOnUse"><stop offset="0" stop-color="#e5e5e5"/><stop offset="1" stop-color="#ccc"/></linearGradient><linearGradient id="r" x1="297.63" y1="344.91" x2="297.63" y2="339.67" xlink:href="#q"/><linearGradient id="s" x1="84.23" y1="342.21" x2="510.33" y2="342.21" gradientUnits="userSpaceOnUse"><stop offset="0.01" stop-color="#999"/><stop offset="0.1" stop-color="#d4d4d4"/><stop offset="0.17" stop-color="#fff"/><stop offset="0.83" stop-color="#fff"/><stop offset="0.94" stop-color="#c2c2c2"/><stop offset="1" stop-color="#999"/></linearGradient><radialGradient id="t" cx="285.13" cy="281.62" fx="-4.348811076114885" r="289.48" gradientTransform="matrix(0.28, 0.96, -1.07, 0.31, 506.03, -80.58)" gradientUnits="userSpaceOnUse"><stop offset="0.4" stop-color="#e5e5e5"/><stop offset="0.56" stop-color="#e3e3e3"/><stop offset="0.64" stop-color="#dbdbdb"/><stop offset="0.69" stop-color="#cfcfcf"/><stop offset="0.74" stop-color="#bdbdbd"/><stop offset="0.78" stop-color="#a5a5a5"/><stop offset="0.82" stop-color="#888"/><stop offset="0.85" stop-color="#666"/><stop offset="0.88" stop-color="#404040"/></radialGradient><linearGradient id="u" x1="481.07" y1="72.35" x2="476.1" y2="58.98" gradientUnits="userSpaceOnUse"><stop offset="0.38" stop-color="#fff"/><stop offset="0.46" stop-color="#e4e4e4"/><stop offset="0.64" stop-color="#aeaeae"/><stop offset="0.8" stop-color="#878787"/><stop offset="0.92" stop-color="#6f6f6f"/><stop offset="1" stop-color="#666"/></linearGradient><linearGradient id="v" x1="527.34" y1="115.67" x2="534.25" y2="123.42" gradientUnits="userSpaceOnUse"><stop offset="0.01" stop-color="#666"/><stop offset="0.4" stop-color="#4a4a4a"/><stop offset="0.74" stop-color="#393939"/><stop offset="1" stop-color="#333"/></linearGradient><radialGradient id="w" cx="296.25" cy="308.18" r="323.8" gradientUnits="userSpaceOnUse"><stop offset="0.96" stop-color="#262626"/><stop offset="0.98" stop-color="#414141"/><stop offset="0.98" stop-color="#4c4c4c"/></radialGradient><linearGradient id="x" x1="570.61" y1="153.91" x2="570.03" y2="144.21" gradientUnits="userSpaceOnUse"><stop offset="0" stop-color="#262626"/><stop offset="0.77" stop-color="#3f3f3f"/><stop offset="1" stop-color="#474747"/></linearGradient><linearGradient id="y" x1="570.79" y1="85.83" x2="577.29" y2="85.83" gradientUnits="userSpaceOnUse"><stop offset="0.01" stop-color="#737373"/><stop offset="0.31" stop-color="#6e6e6e"/><stop offset="0.68" stop-color="#5f5f5f"/><stop offset="1" stop-color="#4c4c4c"/></linearGradient><linearGradient id="z" x1="509.53" y1="16.28" x2="509.53" y2="24.34" gradientUnits="userSpaceOnUse"><stop offset="0" stop-color="#c9c9c9"/><stop offset="1" stop-color="#fff"/></linearGradient><linearGradient id="aa" x1="438.71" y1="31.55" x2="447.07" y2="19.94" gradientUnits="userSpaceOnUse"><stop offset="0" stop-color="gray"/><stop offset="0.14" stop-color="#868686"/><stop offset="0.32" stop-color="#989898"/><stop offset="0.54" stop-color="#b4b4b4"/><stop offset="0.77" stop-color="#dcdcdc"/><stop offset="0.95" stop-color="#fff"/></linearGradient><radialGradient id="ab" cx="295.28" cy="308.15" r="326.59" gradientUnits="userSpaceOnUse"><stop offset="0.95" stop-color="#262626"/><stop offset="0.96" stop-color="#383838"/><stop offset="0.97" stop-color="#4c4c4c"/></radialGradient><linearGradient id="ac" x1="226.11" y1="20.02" x2="537.42" y2="241.24" gradientUnits="userSpaceOnUse"><stop offset="0" stop-color="#fff" stop-opacity="0"/><stop offset="0.41" stop-color="#fff" stop-opacity="0"/><stop offset="0.48" stop-color="#fdfdfd" stop-opacity="0.02"/><stop offset="0.55" stop-color="#f9f9f9" stop-opacity="0.1"/><stop offset="0.64" stop-color="#f1f1f1" stop-opacity="0.22"/><stop offset="0.72" stop-color="#e6e6e6" stop-opacity="0.38"/><stop offset="0.81" stop-color="#d9d9d9" stop-opacity="0.6"/><stop offset="0.9" stop-color="#c8c8c8" stop-opacity="0.86"/><stop offset="0.94" stop-color="#bfbfbf"/><stop offset="0.96" stop-color="silver" stop-opacity="0.99"/><stop offset="0.97" stop-color="#c2c2c2" stop-opacity="0.95"/><stop offset="0.98" stop-color="#c6c6c6" stop-opacity="0.89"/><stop offset="0.98" stop-color="#ccc" stop-opacity="0.8"/><stop offset="0.99" stop-color="#d3d3d3" stop-opacity="0.69"/><stop offset="0.99" stop-color="#dcdcdc" stop-opacity="0.54"/><stop offset="0.99" stop-color="#e7e7e7" stop-opacity="0.37"/><stop offset="1" stop-color="#f3f3f3" stop-opacity="0.18"/><stop offset="1" stop-color="#fff" stop-opacity="0"/></linearGradient><linearGradient id="ad" x1="395.23" y1="74.82" x2="411.82" y2="260.07" gradientUnits="userSpaceOnUse"><stop offset="0.42" stop-color="#fff" stop-opacity="0"/><stop offset="0.65" stop-color="#fefefe" stop-opacity="0.01"/><stop offset="0.73" stop-color="#fcfcfc" stop-opacity="0.05"/><stop offset="0.79" stop-color="#f8f8f8" stop-opacity="0.11"/><stop offset="0.84" stop-color="#f2f2f2" stop-opacity="0.2"/><stop offset="0.88" stop-color="#ebebeb" stop-opacity="0.31"/><stop offset="0.91" stop-color="#e2e2e2" stop-opacity="0.45"/><stop offset="0.95" stop-color="#d7d7d7" stop-opacity="0.62"/><stop offset="0.98" stop-color="#cbcbcb" stop-opacity="0.81"/><stop offset="1" stop-color="#bfbfbf"/></linearGradient><linearGradient id="ae" x1="483.81" y1="77.23" x2="475.48" y2="57.1" gradientUnits="userSpaceOnUse"><stop offset="0" stop-color="#fff"/><stop offset="0.35" stop-color="#c9c9c9"/><stop offset="0.74" stop-color="#959595"/><stop offset="0.93" stop-color="gray"/></linearGradient><linearGradient id="af" x1="525.83" y1="114.34" x2="530.16" y2="117.81" gradientUnits="userSpaceOnUse"><stop offset="0.03" stop-color="#666"/><stop offset="0.99" stop-color="#404040"/></linearGradient><radialGradient id="ag" cx="297.8" cy="300.68" r="318.52" gradientUnits="userSpaceOnUse"><stop offset="0.96" stop-color="#707070"/><stop offset="0.97" stop-color="#595959"/><stop offset="0.97" stop-color="#656565"/><stop offset="0.99" stop-color="#b2b2b2"/></radialGradient><linearGradient id="ah" x1="569.51" y1="145.91" x2="569.49" y2="148.45" gradientUnits="userSpaceOnUse"><stop offset="0" stop-color="#a6a6a6"/><stop offset="1" stop-color="#595959"/></linearGradient><linearGradient id="ai" x1="569.76" y1="85.83" x2="571.78" y2="85.83" gradientUnits="userSpaceOnUse"><stop offset="0" stop-color="#b2b2b2"/><stop offset="0.53" stop-color="#a2a2a2"/><stop offset="1" stop-color="#999"/></linearGradient><linearGradient id="aj" x1="509.52" y1="20.58" x2="509.52" y2="26.3" gradientUnits="userSpaceOnUse"><stop offset="0.28" stop-color="#d9d9d9"/><stop offset="0.41" stop-color="#e4e4e4"/><stop offset="0.64" stop-color="#fff"/></linearGradient><linearGradient id="ak" x1="448.25" y1="23.94" x2="448.27" y2="29.62" gradientUnits="userSpaceOnUse"><stop offset="0" stop-color="#e5e5e5"/><stop offset="0.26" stop-color="#e2e2e2"/><stop offset="0.48" stop-color="#d7d7d7"/><stop offset="0.68" stop-color="#c6c6c6"/><stop offset="0.87" stop-color="#adadad"/><stop offset="1" stop-color="#999"/></linearGradient><radialGradient id="al" cx="293.77" cy="302.58" r="318.47" gradientUnits="userSpaceOnUse"><stop offset="0.77" stop-color="#737373"/><stop offset="0.95" stop-color="#b0b0b0"/><stop offset="0.99" stop-color="#bfbfbf"/></radialGradient><radialGradient id="am" cx="366.54" cy="531.36" fx="852.07926920601" fy="531.3643987628002" r="490.45" gradientUnits="userSpaceOnUse"><stop offset="0.45" stop-color="#fff"/><stop offset="0.55" stop-color="#fcfcfc"/><stop offset="0.63" stop-color="#f3f3f3"/><stop offset="0.69" stop-color="#e3e3e3"/><stop offset="0.76" stop-color="#ccc"/><stop offset="0.81" stop-color="#afafaf"/><stop offset="0.87" stop-color="#8b8b8b"/><stop offset="0.92" stop-color="#616161"/><stop offset="0.97" stop-color="#313131"/><stop offset="0.98" stop-color="#262626"/></radialGradient><linearGradient id="an" x1="297.61" y1="339.97" x2="297.61" y2="337.95" gradientUnits="userSpaceOnUse"><stop offset="0" stop-color="#404040"/><stop offset="0.12" stop-color="#545454"/><stop offset="0.54" stop-color="#959595"/><stop offset="0.84" stop-color="#bdbdbd"/><stop offset="1" stop-color="#ccc"/></linearGradient><linearGradient id="ao" x1="297.61" y1="255.28" x2="297.61" y2="257.3" gradientUnits="userSpaceOnUse"><stop offset="0.28" stop-color="#a6a6a6"/><stop offset="0.39" stop-color="#bbb"/><stop offset="0.64" stop-color="#e3e3e3"/><stop offset="0.77" stop-color="#f2f2f2"/></linearGradient><radialGradient id="ap" cx="285.62" cy="294.62" fx="191.73949636112542" fy="-24.745910205252926" r="332.88" gradientTransform="translate(1.27 18.22) rotate(0.26) scale(1 0.93)" gradientUnits="userSpaceOnUse"><stop offset="0.51" stop-color="#fff"/><stop offset="0.59" stop-color="#fcfcfc"/><stop offset="0.65" stop-color="#f2f2f2"/><stop offset="0.7" stop-color="#e1e1e1"/><stop offset="0.75" stop-color="#c9c9c9"/><stop offset="0.8" stop-color="#ababab"/><stop offset="0.85" stop-color="#858585"/><stop offset="0.89" stop-color="#5a5a5a"/><stop offset="0.92" stop-color="#333"/></radialGradient><linearGradient id="aq" x1="277.79" y1="216.96" x2="321.99" y2="379.01" gradientUnits="userSpaceOnUse"><stop offset="0" stop-color="#fff"/><stop offset="0.21" stop-color="#fafafa"/><stop offset="0.45" stop-color="#ededed"/><stop offset="0.7" stop-color="#d7d7d7"/><stop offset="0.95" stop-color="#b8b8b8"/><stop offset="1" stop-color="#b2b2b2"/></linearGradient></defs><g class="b"><path class="c" d="M516.37,127.69l.55.71c37.72,48.68,57.67,107.2,57.67,169.23a277,277,0,0,1-472.8,195.83A277,277,0,0,1,297.63,20.67c62.16,0,120.78,20,169.53,57.9l.7.54-.6-8.61A282.23,282.23,0,0,0,297.63,14.16c-156.55,0-283.46,126.91-283.46,283.46S141.08,581.09,297.63,581.09,581.09,454.18,581.09,297.62A282.25,282.25,0,0,0,525,128.29Z"/><path class="d" d="M516.37,127.69l.55.71c37.72,48.68,57.67,107.2,57.67,169.23a277,277,0,0,1-472.8,195.83A277,277,0,0,1,297.63,20.67c62.16,0,120.78,20,169.53,57.9l.7.54-.6-8.61A282.23,282.23,0,0,0,297.63,14.16c-156.55,0-283.46,126.91-283.46,283.46S141.08,581.09,297.63,581.09,581.09,454.18,581.09,297.62A282.25,282.25,0,0,0,525,128.29Z"/><path class="e" d="M88.83,252.54a213.64,213.64,0,0,1,417.6,0Zm208.8,258.63A213.73,213.73,0,0,1,88.83,342.71h417.6a213.73,213.73,0,0,1-208.8,168.46ZM517.71,127.78l21.51-21.5a307.5,307.5,0,0,1,28,41.82h4.56V23.57H447.27v4.51a308.2,308.2,0,0,1,42,28.19l-21.51,21.5A278,278,0,0,0,101.08,494.18a278,278,0,0,0,416.63-366.4Z"/><path class="f" d="M88.83,252.54a213.64,213.64,0,0,1,417.6,0Zm208.8,258.63A213.73,213.73,0,0,1,88.83,342.71h417.6a213.73,213.73,0,0,1-208.8,168.46ZM517.71,127.78l21.51-21.5a307.5,307.5,0,0,1,28,41.82h4.56V23.57H447.27v4.51a308.2,308.2,0,0,1,42,28.19l-21.51,21.5A278,278,0,0,0,101.08,494.18a278,278,0,0,0,416.63-366.4Z"/><path class="g" d="M88.83,252.54a213.64,213.64,0,0,1,417.6,0Zm208.8,258.63A213.73,213.73,0,0,1,88.83,342.71h417.6a213.73,213.73,0,0,1-208.8,168.46ZM517.71,127.78l21.51-21.5a307.5,307.5,0,0,1,28,41.82h4.56V23.57H447.27v4.51a308.2,308.2,0,0,1,42,28.19l-21.51,21.5A278,278,0,0,0,101.08,494.18a278,278,0,0,0,416.63-366.4Z"/><path class="h" d="M493.38,249.79a201.54,201.54,0,0,0-391.5,0l-16.44,5.49-1.21,1,.24-1.2a217.38,217.38,0,0,1,426.32,0l.24,1.2-1.24-1Zm0,95.67a201.54,201.54,0,0,1-391.5,0L85.44,340l-1.21-1,.24,1.2a217.38,217.38,0,0,0,426.32,0L511,339l-1.24,1Z"/><polygon class="i" points="480.96 56.81 467.26 70.5 467.86 79.11 490.79 56.19 480.96 56.81"/><path class="j" d="M493.38,249.79a201.54,201.54,0,0,0-391.5,0l-16.44,5.49-1.21,1,.24-1.2a217.38,217.38,0,0,1,426.32,0l.24,1.2-1.24-1Zm0,95.67a201.54,201.54,0,0,1-391.5,0L85.44,340l-1.21-1,.24,1.2a217.38,217.38,0,0,0,426.32,0L511,339l-1.24,1Z"/><g class="k"><path class="l" d="M297.61,513.92a216.29,216.29,0,1,1,153-63.35A214.88,214.88,0,0,1,297.61,513.92Zm142.45-73.85a201.45,201.45,0,1,0-142.45,59A200.13,200.13,0,0,0,440.06,440.07Z"/></g><polygon class="m" points="101.88 249.78 493.38 249.78 509.79 255.28 511.03 256.29 84.23 256.29 85.44 255.28 101.88 249.78"/><polygon class="n" points="101.88 345.46 493.38 345.46 509.79 339.96 511.03 338.96 84.23 338.96 85.44 339.96 101.88 345.46"/><polygon class="o" points="480.96 56.81 467.26 70.5 467.86 79.11 490.79 56.19 480.96 56.81"/><polygon class="p" points="539.31 104.77 516.37 127.69 524.98 128.29 538.68 114.6 539.31 104.77"/><polygon class="q" points="570.79 24.58 570.79 147.09 577.29 153.6 577.29 18.07 570.79 24.58"/><polygon class="r" points="577.29 18.07 441.77 18.07 448.28 24.58 570.79 24.58 577.29 18.07"/><polygon class="s" points="101.88 249.78 493.38 249.78 509.79 255.28 511.03 256.29 84.23 256.29 85.44 255.28 101.88 249.78"/><polygon class="t" points="84.23 338.96 511.03 338.96 509.79 339.96 493.38 345.46 101.88 345.46 85.44 339.96 84.23 338.96"/><polygon class="u" points="84.23 338.96 511.03 338.96 509.79 339.96 493.38 345.46 101.88 345.46 85.44 339.96 84.23 338.96"/><path class="v" d="M516.37,127.69l.55.71c37.72,48.68,57.67,107.2,57.67,169.23a277,277,0,0,1-472.8,195.83A277,277,0,0,1,297.63,20.67c62.16,0,120.78,20,169.53,57.9l.7.54-.6-8.61A282.23,282.23,0,0,0,297.63,14.16c-156.55,0-283.46,126.91-283.46,283.46S141.08,581.09,297.63,581.09,581.09,454.18,581.09,297.62A282.25,282.25,0,0,0,525,128.29Z"/><polygon class="w" points="480.96 56.81 467.26 70.5 467.86 79.11 490.79 56.19 480.96 56.81"/><polygon class="x" points="539.31 104.77 516.37 127.69 524.98 128.29 538.68 114.6 539.31 104.77"/><path class="y" d="M567.82,147.09A310.11,310.11,0,0,0,540,105.65l-.7-.89-.63,9.84a304.07,304.07,0,0,1,25.21,39Z"/><polygon class="z" points="570.79 147.09 567.82 147.09 563.89 153.6 577.29 153.6 570.79 147.09"/><polygon class="aa" points="570.79 24.58 570.79 147.09 577.29 153.6 577.29 18.07 570.79 24.58"/><polygon class="ab" points="577.29 18.07 441.77 18.07 448.28 24.58 570.79 24.58 577.29 18.07"/><polygon class="ac" points="441.77 18.07 441.77 31.43 448.28 27.48 448.28 24.58 441.77 18.07"/><path class="ad" d="M441.77,31.43A303.14,303.14,0,0,1,481,56.81l9.83-.62-.88-.71a310.57,310.57,0,0,0-41.63-28Z"/><path class="ae" d="M297.61,80.32A217.48,217.48,0,0,1,510.78,255.09l.24,1.2-1.25-1-16.41-5.49A201.6,201.6,0,0,0,297.61,96.18Z"/><path class="af" d="M297.61,80.32A217.48,217.48,0,0,1,510.78,255.09l.24,1.2-1.25-1-16.41-5.49A201.6,201.6,0,0,0,297.61,96.18Z"/><polygon class="ag" points="492.29 56.1 467.92 80.46 467.76 77.77 489.26 56.27 492.29 56.1"/><polygon class="ah" points="539.21 106.28 517.7 127.78 515.01 127.61 539.38 103.25 539.21 106.28"/><path class="ai" d="M567.21,148.1a307.43,307.43,0,0,0-28-41.82l.17-3a310.32,310.32,0,0,1,29,42.83Z"/><polygon class="aj" points="571.78 148.1 567.21 148.1 568.4 146.08 569.76 146.08 571.78 148.1"/><polygon class="ak" points="571.78 23.57 571.78 148.1 569.76 146.08 569.76 25.59 571.78 23.57"/><polygon class="al" points="569.76 25.59 449.27 25.59 447.25 23.57 571.78 23.57 569.76 25.59"/><polygon class="am" points="449.27 25.59 449.27 26.89 447.25 28.08 447.25 23.57 449.27 25.59"/><path class="an" d="M449.27,26.89a310.24,310.24,0,0,1,43,29.21l-3,.17a308.3,308.3,0,0,0-42-28.19Z"/><path class="ao" d="M83,257.3a218.34,218.34,0,0,1,369-114,216.65,216.65,0,0,1,60.23,114l-2.42-2a216.38,216.38,0,0,0-424.35,0ZM509.79,340a216.38,216.38,0,0,1-424.35,0L83,338A218.34,218.34,0,0,0,452,452a216.65,216.65,0,0,0,60.23-114Z"/><polygon class="ap" points="83.02 337.95 512.21 337.95 509.79 339.96 85.44 339.96 83.02 337.95"/><polygon class="aq" points="512.22 257.3 83.02 257.3 85.44 255.28 509.79 255.28 512.22 257.3"/><path class="ar" d="M515,127.61A276,276,0,0,1,102.49,492.75,276,276,0,0,1,467.92,80.46l-.16-2.69a278,278,0,0,0-366.7,416.41A278,278,0,0,0,517.7,127.78Z"/><path d="M463.07,269.42c-23.24,0-38.25,11.09-38.25,28.26,0,17.66,14.71,28.35,38.39,28.35s38-10.69,38-28.35C501.18,280.51,486.39,269.42,463.07,269.42ZM463,316.75h-.23c-8.64-.19-12.35-9.87-12.21-19.39.16-11.34,5.08-18.51,12.75-18.48h.2c7.33.13,12.31,7.94,12.12,18.92C475.49,306.54,472.09,316.74,463,316.75Z"/><path class="as" d="M489.92,276.35a24.5,24.5,0,0,1,10.38,20.4c0,17.53-14.57,28.42-38,28.42-15.68,0-27.39-4.84-33.47-13.24,5.88,9.11,18,14.39,34.39,14.39,23.6,0,38.25-11,38.25-28.64A24.85,24.85,0,0,0,489.92,276.35Z"/><path class="as" d="M450.6,297.36c.19-10.86,5.42-18.44,12.72-18.44h.2c7.23.13,12.17,7.7,12.11,18.46,0-.13,0-.25,0-.38.2-11.31-5-19.3-12.62-19.43h-.21c-7.61,0-13.06,7.8-13.25,19-.16,8.64,2.83,17.42,9.72,19.5C453.14,313.67,450.46,305.47,450.6,297.36Z"/><path class="as" d="M426.43,275H397.94l-4.47,4.47a1.11,1.11,0,0,0,.8.34h9.06l-16.74,31-17-31H381a1.14,1.14,0,0,0,1.13-1.14v-7a1.11,1.11,0,0,0-.32-.79L376.68,276H352l22.27,38.91-9.41,9.4a2.06,2.06,0,0,0,1.18.46l26.5,0h.55a2.09,2.09,0,0,0,1.67-1l23.76-43.94h11.27a1.14,1.14,0,0,0,1.13-1.13v-7a1.1,1.1,0,0,0-.33-.8Z"/><path class="as" d="M331.64,276l-3.52,3.52a1.14,1.14,0,0,0,.8.33h11.27l2.28-3.86Z"/><polygon points="403.33 279.82 405.19 278.68 411.17 275.01 414.1 275.01 389.81 319.14 386.59 313.15 386.59 310.78 403.33 279.82"/><path d="M426.43,275l4.14-4.13a1.11,1.11,0,0,0-.8-.34h-35.5a1.14,1.14,0,0,0-1.14,1.14v7a1.09,1.09,0,0,0,.34.8l4.47-4.47Z"/><path d="M352,276h24.7l5.08-5.08a1.14,1.14,0,0,0-.81-.35h-52a1.15,1.15,0,0,0-1.14,1.14v7a1.13,1.13,0,0,0,.34.8l3.52-3.52h10.83l-2.28,3.86,24.15,43.91a1.6,1.6,0,0,0,.5.54l.71-.68,8.7-8.72Z"/><path class="as" d="M95.9,276l-3.52,3.52a1.14,1.14,0,0,0,.8.33h11.26l2.29-3.86Z"/><polygon points="167.59 279.82 169.43 278.68 175.26 275.01 178.35 275.01 154.09 319.12 150.82 313.15 150.82 310.78 167.59 279.82"/><path d="M116.24,276h24.7l5.08-5.08a1.16,1.16,0,0,0-.81-.35h-52a1.14,1.14,0,0,0-1.14,1.14v7a1.13,1.13,0,0,0,.34.8L95.9,276h10.83l-2.29,3.86,24.15,43.91a1.74,1.74,0,0,0,.51.54l9.41-9.4Z"/><path class="as" d="M342.08,299.34,338,303.46v15.11H302.41l3.24-3.24h0V279.8h11.06a1,1,0,0,0,1.14-1.13v-7a1.13,1.13,0,0,0-.34-.8L313.39,275H292.62v44.9H272.49L268,324.36a1.12,1.12,0,0,0,.8.33h72.44a1.14,1.14,0,0,0,1.14-1.14V300.14A1.11,1.11,0,0,0,342.08,299.34Z"/><path class="as" d="M272.5,275l-4.45,4.46a1.14,1.14,0,0,0,.8.33h11.2l4.79-4.79Z"/><path d="M338,318.57V303.46l4.12-4.12a1.11,1.11,0,0,0-.8-.34h-6.95a1.1,1.1,0,0,0-1.09,1.1c0,8.88-6.81,15.22-16.09,15.22h-11.5l-3.24,3.24Z"/><path d="M292.62,319.91V275h20.77l4.13-4.13a1.14,1.14,0,0,0-.8-.33H268.84a1.14,1.14,0,0,0-1.13,1.14v7a1.13,1.13,0,0,0,.34.8L272.5,275h12.34l-4.79,4.79h0v35.54H268.84a1.14,1.14,0,0,0-1.13,1.14v7.08a1.16,1.16,0,0,0,.33.8l4.45-4.45Z"/><path d="M227.38,269.42c-23.23,0-38.24,11.09-38.24,28.26,0,17.66,14.71,28.35,38.39,28.35s38-10.69,38-28.35C265.49,280.51,250.71,269.42,227.38,269.42Zm0,47.33h-.23c-8.65-.19-12.36-9.87-12.22-19.39.17-11.34,5.08-18.51,12.76-18.48h.2c7.32.13,12.31,7.94,12.11,18.92C239.8,306.54,236.4,316.74,227.33,316.75Z"/><path class="as" d="M254.24,276.35a24.52,24.52,0,0,1,10.37,20.4c0,17.53-14.56,28.42-38,28.42-15.67,0-27.38-4.84-33.46-13.24,5.88,9.11,18,14.39,34.39,14.39,23.59,0,38.25-11,38.25-28.64A24.87,24.87,0,0,0,254.24,276.35Z"/><path class="as" d="M214.92,297.36c.18-10.86,5.41-18.44,12.72-18.44h.2c7.22.13,12.16,7.7,12.11,18.46,0-.13,0-.25,0-.38.2-11.31-5-19.3-12.62-19.43h-.21c-7.61,0-13.06,7.8-13.26,19-.15,8.64,2.83,17.42,9.72,19.5C217.45,313.67,214.78,305.47,214.92,297.36Z"/><path class="as" d="M190.69,275h-28.5l-4.47,4.47a1.13,1.13,0,0,0,.8.34h9.07l-16.77,31-16.95-31h11.34a1.14,1.14,0,0,0,1.13-1.14v-7a1.11,1.11,0,0,0-.32-.79L140.94,276h-24.7l22.27,38.91-9.41,9.4a2,2,0,0,0,1.17.46l26.51,0h.55a2.1,2.1,0,0,0,1.67-1l23.76-43.94H194a1.14,1.14,0,0,0,1.13-1.13v-7a1.14,1.14,0,0,0-.33-.8Z"/><path d="M190.69,275l4.14-4.13a1.13,1.13,0,0,0-.8-.34H158.52a1.14,1.14,0,0,0-1.13,1.14v7a1.12,1.12,0,0,0,.33.8l4.47-4.47Z"/><path class="at" d="M463.21,325.18c-23,0-37.25-10.54-37.25-27.5,0-16.48,14.56-27.12,37.11-27.12s37.26,10.64,37.26,27.12C500.33,314.64,486.1,325.18,463.21,325.18Zm-.21-7.29c9.91,0,13.61-10.81,13.77-20.07.21-11.65-5.24-19.89-13.24-20h-.21c-8,0-13.66,8-13.85,19.55-.18,10.09,3.86,20.34,13.29,20.54Zm-235.48,7.29c-23,0-37.25-10.54-37.25-27.5,0-16.48,14.56-27.12,37.11-27.12s37.26,10.64,37.26,27.12C264.64,314.64,250.42,325.18,227.52,325.18Zm-.2-7.29c9.9,0,13.6-10.81,13.76-20.07A26.37,26.37,0,0,0,237.89,284c-2.4-4-5.88-6.15-10-6.22h-.22c-8,0-13.65,8-13.85,19.55-.18,10.09,3.87,20.34,13.29,20.54Zm164.07,5.74-25.84,0-24.7-44.91H328.92v-7h52v7H367.7l18.89,34.46,18.2-33.65.4-.82H394.27v-7h35.5v7H417.82l-24.29,44.94Zm-235.78,0-25.83,0-24.7-44.91H93.15v-7h52v7H131.93l18.89,34.46,18.61-34.47H158.5v-7H194v7H182.05l-24.29,44.94Zm113.23-7.15H281.2l0-37.81H268.85v-7h47.88v7h-12.2v37.79H317.1c10.18,0,17.22-6.84,17.22-16.32h7v23.41H268.84Z"/><path class="au" d="M463.21,325.18c-23,0-37.25-10.54-37.25-27.5,0-16.48,14.56-27.12,37.11-27.12s37.26,10.64,37.26,27.12C500.33,314.64,486.1,325.18,463.21,325.18Zm-.21-7.29c9.91,0,13.61-10.81,13.77-20.07.21-11.65-5.24-19.89-13.24-20h-.21c-8,0-13.66,8-13.85,19.55-.18,10.09,3.86,20.34,13.29,20.54Zm-235.48,7.29c-23,0-37.25-10.54-37.25-27.5,0-16.48,14.56-27.12,37.11-27.12s37.26,10.64,37.26,27.12C264.64,314.64,250.42,325.18,227.52,325.18Zm-.2-7.29c9.9,0,13.6-10.81,13.76-20.07A26.37,26.37,0,0,0,237.89,284c-2.4-4-5.88-6.15-10-6.22h-.22c-8,0-13.65,8-13.85,19.55-.18,10.09,3.87,20.34,13.29,20.54Zm164.07,5.74-25.84,0-24.7-44.91H328.92v-7h52v7H367.7l18.89,34.46,18.2-33.65.4-.82H394.27v-7h35.5v7H417.82l-24.29,44.94Zm-235.78,0-25.83,0-24.7-44.91H93.15v-7h52v7H131.93l18.89,34.46,18.61-34.47H158.5v-7H194v7H182.05l-24.29,44.94Zm113.23-7.15H281.2l0-37.81H268.85v-7h47.88v7h-12.2v37.79H317.1c10.18,0,17.22-6.84,17.22-16.32h7v23.41H268.84Z"/></g></svg>